<svg xmlns="http://www.w3.org/2000/svg" xml:space="preserve" viewBox="0 0 1000 1000">
  <path d="m420.71 207.36-76.35 135.69 76.35 132.65c47.59 82.63 77.57 132.65 79.39 132.65s31.8-50.02 79.39-132.65l76.35-132.65-76.35-135.69c-48-85.26-77.57-135.69-79.39-135.69s-31.39 50.22-79.39 135.69zM168.37 659.38c-2.23 3.64-36.05 61.36-75.34 128.2-39.29 66.83-73.92 125.76-77.16 131.23L10 928.33l157.16-.41 157.16-.61 76.55-135.69c41.92-74.73 76.35-135.89 76.15-135.89-.2-.2-68.65-.81-152.3-1.62l-152.3-1.41-4.05 6.68zM611.29 654.93l-88.1 1.01 76.35 135.69 76.35 135.69 156.95.61 157.16.41-17.01-28.76c-9.32-16-45.57-77.77-80.6-137.31L828.6 653.92h-64.4c-35.66 0-104.31.4-152.91 1.01z"/>
</svg>
